<?xml version="1.0" encoding="utf-8"?>
<!-- Generator: Adobe Illustrator 26.0.1, SVG Export Plug-In . SVG Version: 6.00 Build 0)  -->
<svg version="1.1" id="Layer_1" xmlns="http://www.w3.org/2000/svg" xmlns:xlink="http://www.w3.org/1999/xlink" x="0px" y="0px"
	 viewBox="0 0 512 512" style="enable-background:new 0 0 512 512;" xml:space="preserve">
<style type="text/css">
	.st0{fill:#FFFFFF;}
</style>
<path class="st0" d="M367.2,412.5L99.5,144.8C77.1,176.1,64,214.5,64,256c0,106,86,192,192,192C297.5,448,335.9,434.9,367.2,412.5z
	 M412.5,367.2C434.9,335.9,448,297.5,448,256c0-106-86-192-192-192c-41.5,0-79.9,13.1-111.2,35.5L412.5,367.2z M0,256
	C0,114.6,114.6,0,256,0s256,114.6,256,256S397.4,512,256,512S0,397.4,0,256z"/>
</svg>
