<?xml version="1.0" encoding="utf-8"?>
<!-- Generator: Adobe Illustrator 26.0.1, SVG Export Plug-In . SVG Version: 6.00 Build 0)  -->
<svg version="1.1" id="Layer_1" xmlns="http://www.w3.org/2000/svg" xmlns:xlink="http://www.w3.org/1999/xlink" x="0px" y="0px"
	 viewBox="0 0 640 512" style="enable-background:new 0 0 640 512;" xml:space="preserve">
<style type="text/css">
	.st0{fill:#FFFFFF;}
</style>
<path class="st0" d="M640,0v400c0,61.9-50.1,112-112,112c-61,0-110.5-48.7-112-109.3L48.4,502.9c-17.1,4.6-34.6-5.4-39.3-22.5
	s5.4-34.6,22.5-39.3L352,353.8V64c0-35.3,28.7-64,64-64H640z M576,400c0-26.5-21.5-48-48-48c-26.5,0-48,21.5-48,48s21.5,48,48,48
	C554.5,448,576,426.5,576,400z M23.1,207.7c-4.6-17.1,5.6-34.6,22.6-39.2l46.4-12.4l20.7,77.3c2.3,8.5,11.1,13.6,19.6,11.3l30.9-8.3
	c8.5-2.3,13.6-11.1,11.3-19.6l-20.7-77.3l46.4-12.4c17.1-4.6,34.6,5.6,39.2,22.6l41.4,154.5c4.6,17.1-5.6,34.6-22.6,39.2
	l-154.6,41.5c-17.1,4.6-34.6-5.6-39.2-22.6L23.1,207.7z"/>
</svg>
